<mxfile host="app.diagrams.net" agent="Mozilla/5.0 (Windows NT 10.0; Win64; x64) AppleWebKit/537.36 (KHTML, like Gecko) Chrome/131.0.0.0 Safari/537.36 Edg/131.0.0.0" version="25.0.3">
  <diagram name="Страница — 1" id="8APluLGnNXjolnjs77GI">
    <mxGraphModel dx="1186" dy="603" grid="1" gridSize="10" guides="1" tooltips="1" connect="1" arrows="1" fold="1" page="1" pageScale="1" pageWidth="827" pageHeight="1169" math="0" shadow="0">
      <root>
        <mxCell id="0" />
        <mxCell id="1" parent="0" />
        <mxCell id="VMIW0ezi9uMQvfn0LnGd-1" value="Врач" style="rounded=0;whiteSpace=wrap;html=1;" vertex="1" parent="1">
          <mxGeometry x="160" y="30" width="120" height="60" as="geometry" />
        </mxCell>
        <mxCell id="VMIW0ezi9uMQvfn0LnGd-2" value="получение истории болезни" style="ellipse;whiteSpace=wrap;html=1;aspect=fixed;" vertex="1" parent="1">
          <mxGeometry x="170" y="140" width="100" height="100" as="geometry" />
        </mxCell>
        <mxCell id="VMIW0ezi9uMQvfn0LnGd-3" value="мед. книжка&lt;div&gt;пациента&lt;/div&gt;" style="html=1;dashed=0;whiteSpace=wrap;shape=partialRectangle;right=0;left=0;" vertex="1" parent="1">
          <mxGeometry x="490" y="230" width="100" height="30" as="geometry" />
        </mxCell>
        <mxCell id="VMIW0ezi9uMQvfn0LnGd-4" value="Постановка диагноза" style="shape=ellipse;html=1;dashed=0;whiteSpace=wrap;aspect=fixed;perimeter=ellipsePerimeter;" vertex="1" parent="1">
          <mxGeometry x="170" y="280" width="100" height="100" as="geometry" />
        </mxCell>
        <mxCell id="VMIW0ezi9uMQvfn0LnGd-5" value="Выписывание рецепта" style="shape=ellipse;html=1;dashed=0;whiteSpace=wrap;aspect=fixed;perimeter=ellipsePerimeter;" vertex="1" parent="1">
          <mxGeometry x="170" y="420" width="100" height="100" as="geometry" />
        </mxCell>
        <mxCell id="VMIW0ezi9uMQvfn0LnGd-6" value="" style="endArrow=classic;html=1;rounded=0;exitX=0.5;exitY=1;exitDx=0;exitDy=0;entryX=0.5;entryY=0;entryDx=0;entryDy=0;" edge="1" parent="1" source="VMIW0ezi9uMQvfn0LnGd-1" target="VMIW0ezi9uMQvfn0LnGd-2">
          <mxGeometry width="50" height="50" relative="1" as="geometry">
            <mxPoint x="240" y="330" as="sourcePoint" />
            <mxPoint x="290" y="280" as="targetPoint" />
          </mxGeometry>
        </mxCell>
        <mxCell id="VMIW0ezi9uMQvfn0LnGd-9" value="ввод данных пациента" style="edgeLabel;html=1;align=center;verticalAlign=middle;resizable=0;points=[];" vertex="1" connectable="0" parent="VMIW0ezi9uMQvfn0LnGd-6">
          <mxGeometry x="-0.1667" y="-1" relative="1" as="geometry">
            <mxPoint as="offset" />
          </mxGeometry>
        </mxCell>
        <mxCell id="VMIW0ezi9uMQvfn0LnGd-7" value="" style="endArrow=classic;html=1;rounded=0;exitX=0.5;exitY=1;exitDx=0;exitDy=0;entryX=0.5;entryY=0;entryDx=0;entryDy=0;" edge="1" parent="1" source="VMIW0ezi9uMQvfn0LnGd-2" target="VMIW0ezi9uMQvfn0LnGd-4">
          <mxGeometry width="50" height="50" relative="1" as="geometry">
            <mxPoint x="240" y="330" as="sourcePoint" />
            <mxPoint x="290" y="280" as="targetPoint" />
          </mxGeometry>
        </mxCell>
        <mxCell id="VMIW0ezi9uMQvfn0LnGd-14" value="интерпретация жалоб пациента" style="edgeLabel;html=1;align=center;verticalAlign=middle;resizable=0;points=[];" vertex="1" connectable="0" parent="VMIW0ezi9uMQvfn0LnGd-7">
          <mxGeometry x="-0.1" y="-2" relative="1" as="geometry">
            <mxPoint as="offset" />
          </mxGeometry>
        </mxCell>
        <mxCell id="VMIW0ezi9uMQvfn0LnGd-8" value="" style="endArrow=classic;html=1;rounded=0;exitX=0.5;exitY=1;exitDx=0;exitDy=0;entryX=0.5;entryY=0;entryDx=0;entryDy=0;" edge="1" parent="1" source="VMIW0ezi9uMQvfn0LnGd-4" target="VMIW0ezi9uMQvfn0LnGd-5">
          <mxGeometry width="50" height="50" relative="1" as="geometry">
            <mxPoint x="240" y="330" as="sourcePoint" />
            <mxPoint x="290" y="280" as="targetPoint" />
          </mxGeometry>
        </mxCell>
        <mxCell id="VMIW0ezi9uMQvfn0LnGd-15" value="данные для лечения" style="edgeLabel;html=1;align=center;verticalAlign=middle;resizable=0;points=[];" vertex="1" connectable="0" parent="VMIW0ezi9uMQvfn0LnGd-8">
          <mxGeometry x="-0.0667" y="3" relative="1" as="geometry">
            <mxPoint as="offset" />
          </mxGeometry>
        </mxCell>
        <mxCell id="VMIW0ezi9uMQvfn0LnGd-10" value="" style="endArrow=classic;html=1;rounded=0;entryX=1;entryY=0.5;entryDx=0;entryDy=0;exitX=0;exitY=0.5;exitDx=0;exitDy=0;" edge="1" parent="1" source="VMIW0ezi9uMQvfn0LnGd-3" target="VMIW0ezi9uMQvfn0LnGd-2">
          <mxGeometry width="50" height="50" relative="1" as="geometry">
            <mxPoint x="240" y="330" as="sourcePoint" />
            <mxPoint x="290" y="280" as="targetPoint" />
            <Array as="points" />
          </mxGeometry>
        </mxCell>
        <mxCell id="VMIW0ezi9uMQvfn0LnGd-11" value="&lt;div&gt;история болезни,&lt;/div&gt;&lt;div&gt;аллергии&lt;/div&gt;&lt;div&gt;(и прочие важные факторы)&lt;/div&gt;" style="edgeLabel;html=1;align=center;verticalAlign=middle;resizable=0;points=[];" vertex="1" connectable="0" parent="VMIW0ezi9uMQvfn0LnGd-10">
          <mxGeometry x="0.0857" y="-3" relative="1" as="geometry">
            <mxPoint as="offset" />
          </mxGeometry>
        </mxCell>
        <mxCell id="VMIW0ezi9uMQvfn0LnGd-12" value="" style="endArrow=classic;html=1;rounded=0;exitX=1;exitY=0.5;exitDx=0;exitDy=0;entryX=0.25;entryY=1;entryDx=0;entryDy=0;" edge="1" parent="1" source="VMIW0ezi9uMQvfn0LnGd-4" target="VMIW0ezi9uMQvfn0LnGd-3">
          <mxGeometry width="50" height="50" relative="1" as="geometry">
            <mxPoint x="370" y="330" as="sourcePoint" />
            <mxPoint x="420" y="280" as="targetPoint" />
          </mxGeometry>
        </mxCell>
        <mxCell id="VMIW0ezi9uMQvfn0LnGd-13" value="сохранение в историю болезни" style="edgeLabel;html=1;align=center;verticalAlign=middle;resizable=0;points=[];" vertex="1" connectable="0" parent="VMIW0ezi9uMQvfn0LnGd-12">
          <mxGeometry x="-0.0148" y="-5" relative="1" as="geometry">
            <mxPoint as="offset" />
          </mxGeometry>
        </mxCell>
      </root>
    </mxGraphModel>
  </diagram>
</mxfile>
